<svg xmlns="http://www.w3.org/2000/svg" width="12" height="15"><path style="line-height:125%;-inkscape-font-specification:Open Sans" d="M2.458 1.355c.794 0 1.297 1.035 1.297 2.07 0 1.037-.523 1.894-1.2 1.894-.716 0-1.49-.858-1.49-1.854 0-.956.483-2.11 1.393-2.11m6.716 5.238c-.735 0-1.355.358-1.935.816a56.163 56.163 0 0 0-3.717 3.227c1.16-2.49 2.225-5.298 2.225-7.31C5.748 1.434 4.703 0 2.923 0 1.335 0 0 1.375 0 3.486 0 5.36 1.587 6.614 2.884 6.614c.174 0 .348-.02.484-.04C2.594 9.522 1.006 12.908 0 15h1.316c1.16-2.092 2.71-3.367 4.936-5.06 0 2.43 1.877 3.267 2.883 3.267 1.47 0 2.865-1.315 2.865-3.287 0-1.892-1.045-3.326-2.826-3.326M8.71 7.948c.793 0 1.296 1.036 1.296 2.072s-.522 1.892-1.2 1.892c-.716 0-1.49-.856-1.49-1.852 0-.956.484-2.112 1.394-2.112" font-size="20.25" font-weight="400" letter-spacing="0" word-spacing="0" fill="#fff" font-family="Open Sans"/></svg>