<?xml version="1.0" encoding="UTF-8" standalone="no"?>
<!-- Created with Inkscape (http://www.inkscape.org/) -->

<svg
   xmlns:dc="http://purl.org/dc/elements/1.1/"
   xmlns:cc="http://creativecommons.org/ns#"
   xmlns:rdf="http://www.w3.org/1999/02/22-rdf-syntax-ns#"
   xmlns:svg="http://www.w3.org/2000/svg"
   xmlns="http://www.w3.org/2000/svg"
   xmlns:sodipodi="http://sodipodi.sourceforge.net/DTD/sodipodi-0.dtd"
   xmlns:inkscape="http://www.inkscape.org/namespaces/inkscape"
   width="16"
   height="16"
   id="svg2"
   version="1.1"
   inkscape:version="0.48.3.1 r9886"
   inkscape:export-filename="C:\Users\Администратор\Dropbox\projects\bjorn\src\assets\img\fav-icon-16-16.png"
   inkscape:export-xdpi="90"
   inkscape:export-ydpi="90"
   sodipodi:docname="Новый документ 1">
  <defs
     id="defs4" />
  <sodipodi:namedview
     id="base"
     pagecolor="#3f51b5"
     bordercolor="#666666"
     borderopacity="1.0"
     inkscape:pageopacity="1"
     inkscape:pageshadow="2"
     inkscape:zoom="22.4"
     inkscape:cx="12.98006"
     inkscape:cy="8.7586255"
     inkscape:document-units="px"
     inkscape:current-layer="layer1"
     showgrid="true"
     inkscape:showpageshadow="false"
     inkscape:window-width="1237"
     inkscape:window-height="678"
     inkscape:window-x="154"
     inkscape:window-y="154"
     inkscape:window-maximized="0">
    <inkscape:grid
       type="xygrid"
       id="grid2994"
       empspacing="5"
       visible="true"
       enabled="true"
       snapvisiblegridlinesonly="true"
       dotted="true" />
  </sodipodi:namedview>
  <metadata
     id="metadata7">
    <rdf:RDF>
      <cc:Work
         rdf:about="">
        <dc:format>image/svg+xml</dc:format>
        <dc:type
           rdf:resource="http://purl.org/dc/dcmitype/StillImage" />
        <dc:title></dc:title>
      </cc:Work>
    </rdf:RDF>
  </metadata>
  <g
     inkscape:label="Layer 1"
     inkscape:groupmode="layer"
     id="layer1"
     transform="translate(0,-1036.3622)">
    <g
       id="layer1-0"
       transform="matrix(0.91813815,0,0,0.91813815,-71.085542,734.53305)">
      <path
         style="font-size:20.25px;font-style:normal;font-variant:normal;font-weight:normal;font-stretch:normal;line-height:125%;letter-spacing:0px;word-spacing:0px;fill:#ffffff;fill-opacity:1;stroke:none;font-family:Open Sans;-inkscape-font-specification:Open Sans"
         id="path2992"
         d="m 82.173651,331.20661 c 0.830249,0 1.35675,1.053 1.35675,2.106 0,1.053 -0.546751,1.92375 -1.2555,1.92375 -0.74925,0 -1.55925,-0.87075 -1.55925,-1.88325 0,-0.972 0.506251,-2.1465 1.458,-2.1465 m 7.02675,5.32575 c -0.7695,0 -1.417501,0.3645 -2.025,0.83025 -1.174499,0.91125 -2.389502,1.9035 -3.888,3.2805 1.214998,-2.53125 2.32875,-5.3865 2.32875,-7.43175 0,-1.92375 -1.093502,-3.38175 -2.9565,-3.38175 -1.660499,0 -3.05775,1.39725 -3.05775,3.54375 0,1.9035 1.660501,3.17925 3.01725,3.17925 0.182249,0 0.3645,-0.0203 0.50625,-0.0405 -0.81,2.99699 -2.470501,6.4395 -3.5235,8.56575 l 1.377,0 c 1.214998,-2.12625 2.835002,-3.42225 5.16375,-5.1435 0,2.47049 1.964251,3.321 3.01725,3.321 1.538998,0 2.997,-1.3365 2.997,-3.34125 0,-1.92375 -1.093502,-3.38175 -2.9565,-3.38175 m -0.486,1.377 c 0.830249,0 1.35675,1.053 1.35675,2.106 0,1.053 -0.546751,1.92375 -1.2555,1.92375 -0.74925,0 -1.55925,-0.87075 -1.55925,-1.88325 0,-0.972 0.506251,-2.1465 1.458,-2.1465"
         inkscape:connector-curvature="0" />
    </g>
  </g>
</svg>
