<?xml version="1.0" encoding="UTF-8" standalone="no"?>
<!-- Created with Inkscape (http://www.inkscape.org/) -->

<svg
   xmlns:dc="http://purl.org/dc/elements/1.1/"
   xmlns:cc="http://creativecommons.org/ns#"
   xmlns:rdf="http://www.w3.org/1999/02/22-rdf-syntax-ns#"
   xmlns:svg="http://www.w3.org/2000/svg"
   xmlns="http://www.w3.org/2000/svg"
   xmlns:sodipodi="http://sodipodi.sourceforge.net/DTD/sodipodi-0.dtd"
   xmlns:inkscape="http://www.inkscape.org/namespaces/inkscape"
   version="1.1"
   width="12"
   height="15"
   id="svg2"
   inkscape:version="0.48.4 r9939"
   sodipodi:docname="logo-light.svg">
  <sodipodi:namedview
     pagecolor="#ffffff"
     bordercolor="#666666"
     borderopacity="1"
     objecttolerance="10"
     gridtolerance="10"
     guidetolerance="10"
     inkscape:pageopacity="0"
     inkscape:pageshadow="2"
     inkscape:window-width="1118"
     inkscape:window-height="686"
     id="namedview7"
     showgrid="false"
     fit-margin-top="0"
     fit-margin-left="0"
     fit-margin-right="0"
     fit-margin-bottom="0"
     inkscape:zoom="15.477186"
     inkscape:cx="6.2775"
     inkscape:cy="7.6241242"
     inkscape:window-x="75"
     inkscape:window-y="34"
     inkscape:window-maximized="0"
     inkscape:current-layer="svg2" />
  <defs
     id="defs4" />
  <metadata
     id="metadata7">
    <rdf:RDF>
      <cc:Work
         rdf:about="">
        <dc:format>image/svg+xml</dc:format>
        <dc:type
           rdf:resource="http://purl.org/dc/dcmitype/StillImage" />
        <dc:title />
      </cc:Work>
    </rdf:RDF>
  </metadata>
  <g
     id="layer1-0"
     transform="matrix(0.9557945,0,0,0.98371944,-76.083059,-324.4598)">
    <path
       style="font-size:20.25px;font-style:normal;font-variant:normal;font-weight:normal;font-stretch:normal;line-height:125%;letter-spacing:0px;word-spacing:0px;fill:#ffffff;fill-opacity:1;stroke:none;font-family:Open Sans;-inkscape-font-specification:Open Sans"
       id="path2992-5"
       d="m 82.173651,331.20661 c 0.830249,0 1.35675,1.053 1.35675,2.106 0,1.053 -0.546751,1.92375 -1.2555,1.92375 -0.74925,0 -1.55925,-0.87075 -1.55925,-1.88325 0,-0.972 0.506251,-2.1465 1.458,-2.1465 m 7.02675,5.32575 c -0.7695,0 -1.417501,0.3645 -2.025,0.83025 -1.174499,0.91125 -2.389502,1.9035 -3.888,3.2805 1.214998,-2.53125 2.32875,-5.3865 2.32875,-7.43175 0,-1.92375 -1.093502,-3.38175 -2.9565,-3.38175 -1.660499,0 -3.05775,1.39725 -3.05775,3.54375 0,1.9035 1.660501,3.17925 3.01725,3.17925 0.182249,0 0.3645,-0.0203 0.50625,-0.0405 -0.81,2.99699 -2.470501,6.4395 -3.5235,8.56575 l 1.377,0 c 1.214998,-2.12625 2.835002,-3.42225 5.16375,-5.1435 0,2.47049 1.964251,3.321 3.01725,3.321 1.538998,0 2.997,-1.3365 2.997,-3.34125 0,-1.92375 -1.093502,-3.38175 -2.9565,-3.38175 m -0.486,1.377 c 0.830249,0 1.35675,1.053 1.35675,2.106 0,1.053 -0.546751,1.92375 -1.2555,1.92375 -0.74925,0 -1.55925,-0.87075 -1.55925,-1.88325 0,-0.972 0.506251,-2.1465 1.458,-2.1465"
       inkscape:connector-curvature="0" />
  </g>
</svg>
