<?xml version="1.0" standalone="no"?>
<!DOCTYPE svg PUBLIC "-//W3C//DTD SVG 20010904//EN"
 "http://www.w3.org/TR/2001/REC-SVG-20010904/DTD/svg10.dtd">
<svg version="1.0" xmlns="http://www.w3.org/2000/svg"
 width="512.000000pt" height="512.000000pt" viewBox="0 0 512.000000 512.000000"
 preserveAspectRatio="xMidYMid meet">
<metadata>
Created by potrace 1.14, written by Peter Selinger 2001-2017
</metadata>
<g transform="translate(0.000000,512.000000) scale(0.100000,-0.100000)"
fill="#000000" stroke="none">
<path d="M507 5104 c-192 -41 -351 -165 -436 -338 -76 -154 -71 -6 -71 -2206
0 -2185 -4 -2052 65 -2195 66 -136 165 -235 300 -300 144 -69 11 -65 2195 -65
2187 0 2051 -4 2197 66 179 85 307 250 347 447 14 68 16 298 16 2047 0 1749
-2 1979 -16 2047 -40 197 -162 356 -339 443 -153 75 -5 70 -2212 69 -1697 -1
-1988 -3 -2046 -15z m2259 -1076 c-19 -51 -195 -523 -391 -1048 -196 -525
-370 -989 -385 -1032 l-29 -76 172 172 c196 198 317 300 467 398 288 188 594
285 1048 333 149 16 631 37 644 28 5 -2 8 -427 8 -944 l0 -939 -845 0 -845 0
0 606 c0 388 -3 604 -10 602 -22 -7 -321 -270 -424 -373 -226 -224 -356 -429
-462 -727 l-38 -108 -278 0 c-203 0 -278 3 -278 12 0 6 117 344 260 751 143
406 260 743 260 747 0 4 -64 28 -143 54 -148 48 -257 104 -335 171 -184 159
-298 467 -332 899 -11 144 -13 448 -4 520 l7 46 983 0 984 0 -34 -92z"/>
<path d="M1506 3833 l-119 -4 7 -237 c16 -575 64 -776 218 -919 44 -39 87 -68
93 -61 1 2 98 275 215 608 117 333 214 608 217 613 4 7 -367 7 -631 0z"/>
<path d="M3435 2509 c-69 -10 -171 -42 -227 -70 l-38 -19 0 -424 c0 -232 3
-505 7 -604 l6 -182 279 0 278 0 0 655 0 655 -122 -1 c-68 -1 -150 -5 -183
-10z"/>
</g>
</svg>
