<?xml version="1.0" encoding="UTF-8" standalone="no"?>
<!-- Created with Inkscape (http://www.inkscape.org/) -->
<svg
   xmlns:svg="http://www.w3.org/2000/svg"
   xmlns="http://www.w3.org/2000/svg"
   version="1.0"
   width="500"
   height="400"
   id="svg2">
  <defs
     id="defs4" />
  <path
     d="M 69,31 C 59,231 149,191 179,221 L 179,201 C 139,181 129,171 129,61 L 208.90625,60.5 L 99.5,370.5 L 159.5,370.5 C 179,311 199,291 259,241 L 259.5,370.5 L 439.5,370.5 L 439.5,170.5 C 289.5,170.5 253.21057,203.75789 189.5,270.5 L 279.5,30.5 L 229.5,30.5 L 219.5,30.5 L 69,31 z M 379.5,200.5 L 379.5,340.5 L 319.5,340.5 L 319,211 C 339,201 349.5,200.5 379.5,200.5 z "
     style="fill:#000000;fill-opacity:1;fill-rule:nonzero;stroke:#000000;stroke-width:1px;stroke-linecap:butt;stroke-linejoin:miter;stroke-opacity:1"
     id="path2167" />
</svg>
